<?xml version="1.0" encoding="utf-8" ?>
<svg xmlns="http://www.w3.org/2000/svg" xmlns:xlink="http://www.w3.org/1999/xlink" width="512" height="512">
	<path transform="scale(0.5 0.5)" d="M216.451 133.147C242.935 130.6 268.454 146.59 280.675 169.835C283.389 174.997 285.012 180.44 287.383 185.687L355.329 185.736C356.715 185.861 356.614 182.925 356.999 181.75C369.541 143.479 414.103 120.559 451.25 140.722C465.023 148.198 480.193 165.854 484.502 181.028C486.446 187.875 488.695 185.575 495.908 185.554L571.07 185.438C586.635 129.516 662.142 112.034 692.655 166.858C695.913 172.711 698.126 179.25 700.27 185.575L731.286 185.398C755.04 185.267 774.18 188.774 792.695 206.072C819.354 230.978 820.03 255.834 820.032 289.415L820.272 528.93C820.885 529.601 820.622 529.484 821.379 529.76C907.289 561 953.31 657.98 934.016 745C924.947 785.905 904.075 818.835 873.022 846.34C788.228 921.444 649.093 896.913 593.25 800.38C590.621 795.836 592.065 794.01 586.432 794.01L231.795 794.016C220.375 794.015 208.055 794.999 196.768 793.606C145.301 787.257 102.118 747.732 90.2154 697.26C86.8797 683.116 87.8425 668.481 87.8428 654.048L87.8218 281.128C87.776 273.745 87.3193 266.163 87.9517 258.805C90.904 224.451 122.241 191.434 155.533 184.432C156.627 184.202 156.722 184.183 157.009 183.09C163.932 156.77 190.325 136.825 216.451 133.147ZM156.112 346.983L128.256 346.973C124.576 346.973 119.65 346.392 116.132 347.187L116.195 347.842C117.042 357.588 116.512 367.754 116.517 377.553L116.51 647.948C116.513 661.642 115.877 675.772 118.75 689.255C127.324 729.492 159.522 757.472 199.484 764.087C207.063 765.342 215.285 764.972 222.967 764.981L554.177 764.993C561.447 764.994 569.146 765.511 576.375 764.898L576.963 764.102C576.104 762.436 575.803 760.5 575.25 758.715L571.653 746.73C562.806 711.541 565.464 672.617 577.615 638.559L590.422 610.603C627.857 545.531 705.495 504.838 780.342 517.733C783.75 518.32 787.595 518.479 790.765 519.874L790.724 360.078C790.708 356.102 791.308 350.828 790.415 346.996L156.112 346.983ZM744.554 545.283C655.126 549.722 590.914 626.974 596.101 715.013C600.993 798.026 677.161 866.801 760.328 861.017L761.124 860.957C803.452 858.772 842.308 840.02 870.378 808.25C960.607 706.126 882.457 536.973 744.554 545.283ZM226.562 215.223L182.696 215.286L184.304 222.339C188.145 244.157 205.268 264.299 227.295 268.924C236.39 270.833 241.539 269.251 245.993 279L246.415 279.9C247.478 282.195 248.138 284.553 247.216 287.028L245.871 289.74C243.495 294.489 238.138 297.658 233 298.526L232.208 298.665C218.647 300.911 201.879 292.119 191.235 284.25C172.161 270.148 157.735 246.793 154.44 223.034L153.958 216.287C118.725 231.858 116.239 252.346 116.461 284.894L116.527 317.766L790.819 317.767L790.756 283.875C790.736 276.7 791.206 269.023 790.304 261.917C787.416 239.181 770.837 220.592 748.422 215.71C742.958 214.52 736.361 215.152 730.769 215.155L595.22 215.407C599.273 237.548 609.737 259.6 632.67 267.437L638.5 269.031C645.567 270.423 649.636 270.323 653.986 276.768C663.38 290.689 647.185 301.539 631.682 297.928C595.906 289.596 571.748 256.401 566.756 221.236C566.515 219.537 566.605 216.507 565.645 215.139L381.702 215.994C382.533 218.875 382.678 221.811 383.495 224.668C398.307 276.447 432.129 261.977 441.99 280.5L442.392 281.242C446.179 288.409 440.112 294.524 433.706 297.515C426.494 300.883 416.745 298.06 409.711 295.39C376.399 282.745 355.038 250.081 352.454 215.232L226.562 215.223ZM219.852 162.658C208.652 164.362 198.474 170.684 191.485 179.612L190.406 181.194C189.468 182.614 188.379 183.981 187.622 185.505L224.795 185.462L255.501 185.377C245.911 174.626 238.514 160.71 219.852 162.658ZM417.856 163.151C408.805 164.476 387.584 176.479 387.032 185.414L424.375 185.497L454.323 185.294C453.174 184.188 452.49 183.304 451.776 181.881C446.008 170.381 430.638 162.394 417.856 163.151ZM632.811 163.098C621.727 165.371 611.274 171.399 604.686 180.823C603.52 182.491 603.182 184.115 601.569 185.483L640.625 185.483L669.708 185.676L666.168 180.884C658.394 169.622 646.662 161.862 632.811 163.098Z"/>
	<path transform="scale(0.5 0.5)" d="M812.351 640.05C822.843 639.386 834.472 652.558 827.635 661.218C826.106 663.155 823.63 664.911 821.713 666.465L812.25 674.372C792.778 691.303 777.638 712.688 763.866 734.338L757.328 744.9C748.636 759.742 741.232 759.496 727.244 747.46L706.469 728.842L698.348 721.123C690.784 713.586 687.688 702.521 696.461 694.26C706.79 684.533 718.506 698.845 725.434 705.754L738.842 719.404L750.539 702.294C764.002 683.171 789.095 647.879 812.351 640.05Z"/>
</svg>
