<?xml version="1.0" encoding="utf-8" ?>
<svg xmlns="http://www.w3.org/2000/svg" xmlns:xlink="http://www.w3.org/1999/xlink" width="512" height="512">
	<path transform="scale(0.5 0.5)" d="M524.578 925.571L467.967 923.403C246.956 900.014 82.0474 697.603 99.8979 478.492C114.899 294.357 257.925 137.654 439.5 104.639C459.119 101.072 479.294 99.6091 499.209 98.7762C677.305 90.8183 844.561 211.78 902.753 378.548L911.673 408.366C912.278 411.545 913.232 414.995 914.192 418.071C918.129 430.679 920.607 450.915 922.325 464.75C932.357 545.55 915.867 630.142 878.047 702L867.006 722.5C831.274 782.117 779.757 833.661 719.5 868.417L690.384 884.585C639.816 909.548 581.232 924.526 524.578 925.571ZM492.259 126.558C471.951 128.016 451.402 130.012 431.488 134.337C307.191 161.333 200.913 252.132 153.933 370L145.826 390.814C116.996 475.773 119.691 566.075 151.94 649.5C174.398 707.594 209.612 757.627 255.632 799.174L272.805 814.268C338.144 866.58 422.984 897.477 506.763 897.539C515.15 897.546 523.627 897.813 531.978 896.935L532.366 897.184C534.112 896.602 536.713 896.84 538.566 896.77C584.874 895.031 632.706 881.642 674.5 861.925C801.168 802.169 886.188 678.223 896.665 539L897.844 524.189C901.492 408.545 850.178 297.804 763.744 221.509C746.387 206.188 727.739 191.688 707.532 180.261L676.838 163.5C649.688 150.336 620.053 140.359 590.587 133.992L568.965 130.108C559.475 128.866 550.073 127.534 540.527 127.002L492.259 126.558Z"/>
	<path transform="scale(0.5 0.5)" d="M528.625 855.549C515.135 856.177 501.091 856.579 487.639 855.495C413.525 849.522 344.264 820.747 287.767 772.455C223.503 717.524 179.369 636.708 170.66 552.25C170.043 546.261 170.106 540.135 169.135 534.174L168.662 530.601C163.139 456.553 188.041 377.042 229.721 316.631C282.047 240.791 365.753 187.059 456.962 172.75C470.421 170.639 484.086 169.642 497.673 168.706C520.127 168.152 536.811 168.386 558.93 171.689C672.153 188.596 763.471 253.484 817.835 355.584C830.469 379.312 843.316 415.196 847.764 441.368C856.079 490.301 858.579 530.288 849.016 580C820.176 729.923 682.219 851.712 528.625 855.549ZM493.768 196.217C482.027 197.35 470.375 198.217 458.75 200.293C312.656 226.383 201.136 349.461 195.478 499.459L210.25 499.395C216.366 499.374 224.256 498.258 228.875 503.115C234.608 509.143 233.458 518.643 226.75 523.381C222.247 526.56 216.861 525.973 211.634 526.003L195.649 526.055C195.017 550.878 202.804 587.992 211.066 610.5L215.044 622C222.651 640.433 230.593 658.724 240.867 675.883C285.558 750.524 361.369 804.438 446.5 822.019L464.303 824.883C475.634 826.728 486.841 828.487 498.353 828.517L498.444 812.153C498.442 807.043 497.696 801.54 500.25 796.96L500.59 796.325C504.87 788.54 516.651 787.323 522.018 794.75L522.493 795.381C527.278 801.872 525.595 820.504 525.072 828.458L530.668 828.278C694.583 818.742 820.144 687.401 828.432 525.989L810.597 525.988C807.723 525.977 804.333 526.295 801.529 525.621C788.876 522.577 788.086 503.003 800.297 499.888C808.55 497.783 819.565 500.115 828.351 499.033C827.186 484.93 826.396 470.96 823.75 457.025C798.508 324.107 689.79 215.649 554.612 198.742L536.838 197.204C533.059 196.925 529.052 196.242 525.273 196.583L525.442 217.628C525.437 221.717 526.403 225.286 523.361 228.447C511.964 240.292 498.488 233.36 498.433 216.365L498.409 202.987C498.406 200.744 498.638 198.222 498.2 196.032L493.768 196.217Z"/>
	<path transform="scale(0.5 0.5)" d="M611.292 641.705L517.303 566.016C516.38 565.111 513.154 565.511 511.706 565.332C476.448 560.962 450.528 523.817 468.693 490.75C473.979 481.13 483.64 470.684 494.506 467.51C496.046 467.06 497.037 466.635 498.367 465.739L498.584 295.075C498.908 292.933 501.575 289.527 503.225 288.222L503.75 287.826C505.945 286.119 508.283 285.406 510.884 284.54L513.135 284.49C525.494 284.763 525.341 296.514 525.344 305.352L525.348 328.728C525.349 340.631 525.262 465.718 525.449 465.95C525.749 466.323 531.405 467.82 532.41 468.293C565.846 484.01 569.984 527.198 543.205 552.892C549.134 558.83 556.593 563.457 563.164 568.637L621.888 615.13C625.732 618.159 630.877 621.297 634.134 624.912C641.398 632.976 627.894 655.81 611.292 641.705ZM510.319 491.141C479.777 496.02 487.905 540.644 514.932 536.535C542.425 532.144 538.196 487.669 510.319 491.141Z"/>
</svg>
