<?xml version="1.0" encoding="utf-8" ?>
<svg xmlns="http://www.w3.org/2000/svg" xmlns:xlink="http://www.w3.org/1999/xlink" width="512" height="512">
	<path transform="scale(0.5 0.5)" d="M517.25 930.578L229.822 930.605C218.381 930.629 206.385 931.398 195 930.587C186.283 929.966 183.033 918.531 188.608 912.542C190.912 910.068 193.805 907.992 196.311 905.701L278.747 827.904C284.702 821.994 287.036 820.214 295.253 818.621L305.54 816.222C330.089 810.568 355.37 806.895 380.475 804.763L447.707 800.579L497.419 800.232C493.193 793.988 490.697 786.191 487.9 779.205L417.94 588.353C414.544 578.324 416.544 580.958 406.854 576.373C336.632 543.142 285.188 478.793 267.835 403C265.017 390.689 262.523 377.643 262.118 365.009L261.943 340.594C262.117 222.32 353.038 116.987 469.333 96.75C482.573 94.446 496.044 93.7005 509.46 93.2805C601.246 93.7667 685.557 140.952 730.503 222.25C743.026 244.9 751.581 269.787 757.028 295C781.308 407.377 721.513 530.956 615.525 576.841C608.16 580.03 608.54 578.677 606.249 586.699L600.899 602.936L543.053 760.736C538.096 774.447 534.187 787.612 526.304 800.058C532.014 800.824 538.201 800.422 543.982 800.446L583.118 800.632L643.225 804.654L700.75 812.484L723.75 817.985C739.121 821.515 736.861 819.466 748.089 830.984L829.017 906.421C833.084 910.008 838.228 913.937 838.405 919.782C838.578 925.481 833.71 930.7 828 930.914L517.25 930.578ZM494.573 117.589C358.831 129.694 264.222 256.954 289.031 388.25C290.507 396.061 291.76 404.202 294.557 411.694L299.996 428.25C319.175 478.793 359.446 527.098 408.561 550.212L424.447 557.303C430.237 559.92 433.616 561.325 435.89 567.737L502.415 750.239C504.347 754.733 506.125 759.905 507.494 764.608C507.69 765.281 511.366 779.728 512.541 775.075L516.338 762.88L582.192 584.506C584.68 577.873 586.684 569.27 590.479 563.382C593.162 559.22 625.255 545.193 632.035 540.978C808.545 431.253 754.886 146.842 539.5 119.138C524.396 117.195 509.796 117.539 494.573 117.589ZM463.852 825.364L398.759 828.016C388.564 828.779 333.728 833.441 328.75 838.326C331.15 841.94 341.425 843.181 345.75 844.025L368.013 847.811C372.368 848.337 376.798 848.203 381.149 848.762L399.782 850.715C402.872 851.061 405.891 851.797 409 852.037L485.978 854.586C489.977 854.653 493.898 855.366 497.883 855.472L527.998 855.5C531.99 855.466 535.815 854.89 539.773 854.712L558.355 854.492L580.6 854.345C591.091 854.107 604.272 852.681 614.932 851.781L659.55 846.686C671.712 844.757 683.494 843.067 695.136 838.816C687.196 834.979 678.594 834.195 669.92 833.265L606.377 827.019C602.346 826.716 598.419 825.931 594.356 825.737L463.852 825.364ZM306.545 841.75L296.821 843.309C287.26 853.986 276.473 863.059 266 872.766L248.41 890.045C241.23 896.808 234.907 903.402 228.032 910.06L755.499 910.099L796.335 909.335C793.181 906.752 790.388 903.44 787.25 900.705L730.494 846.75C725.685 842.04 726.069 842.819 718.871 842.272L715.762 842.556C715.873 847.454 715.654 852.513 712.026 856.238C699.332 869.269 630.337 876.308 606.172 877.477C591.816 878.172 577.039 878.486 562.49 879.163L462 879.091L427.25 877.493C422.189 877.306 417.126 876.445 412.054 876.123L395.512 875.316C381.909 874.204 309.838 868.231 308.01 850.874L308.075 841.75L306.545 841.75Z"/>
	<path transform="scale(0.5 0.5)" d="M520.624 527.778C512.134 527.893 503.216 528.202 494.76 527.499C385.419 518.402 309.545 410.841 334.711 305.522C354.515 222.641 420.641 170.679 503.83 163.213C507.274 162.714 511.116 163.018 514.598 163.034C585.655 163.355 644.387 206.017 676.016 267.75L680.006 277C694.557 313.863 698.335 354.143 687.863 392.75C667.517 467.763 599.72 526.394 520.624 527.778ZM502.825 187.603C429.872 192.491 375.026 242.177 358.04 311.75C352.898 332.809 352.043 365.652 358.445 385.418C377.961 445.674 418.922 491.604 484.559 501.821C497.222 503.792 509.242 504.175 522.055 504.015C531.75 502.736 541.774 501.84 551.259 499.477C618.2 482.8 666.842 422.622 669.897 353.75C673.066 282.333 626.396 214.488 557.317 193.747L545.013 190.359C538.875 188.94 509.022 185.86 502.825 187.603Z"/>
</svg>
