<svg xmlns="http://www.w3.org/2000/svg" width="179.999" height="63.662" viewBox="0 0 179.999 63.662">
  <g id="Group_2" data-name="Group 2" transform="translate(1033.554 -1125.099)">
    <g id="Group_1" data-name="Group 1" transform="translate(-1033.554 1125.099)">
      <path id="Path_1" data-name="Path 1" d="M-885.4,1174.659c-8.719.008-10.564-9.992-10.564-18.317,0-8.345,1.845-18.315,10.576-18.321,8.705.006,10.563,9.987,10.563,18.31,0,8.346-1.846,18.341-10.575,18.328m.012-49.561c-13.734-.027-25.784,6.229-30.055,19.875l-.676.006-.006-17.528-20.836.013.005,32.081c-.005,7.888-2.129,11.5-8.286,11.5-6.488-.006-8.266-3.887-8.266-11.5l.009-32.087h-20.6l-.012,29.875c0,1.184.137,2.163.2,3.258l-.529.155-13.54-33.282-20.638-.006-24.93,61.3h23.059l11.9-37.29h.271l.05.006.248-.006,11.908,37.29,23.047-.007-4.353-10.706.365-.174c4.772,4.094,12.008,5.727,21.9,5.727,17.245.007,26.094-5.114,28.372-18.446l.588-.006c3.512,15.442,16.243,22.421,30.795,22.417,17.114.011,31.828-9.512,31.846-31.234-.007-21.746-14.718-31.233-31.834-31.233" transform="translate(1033.554 -1125.099)" fill="#005087"/>
    </g>
  </g>
</svg>
