<?xml version="1.0" encoding="utf-8" ?>
<svg xmlns="http://www.w3.org/2000/svg" xmlns:xlink="http://www.w3.org/1999/xlink" width="512" height="512">
	<path transform="scale(0.5 0.5)" d="M518.937 926.578C497.029 926.702 473.986 928.494 455.508 914.405C442.571 904.539 432.288 890.068 430.18 873.662L430.1 873C428.492 861.089 430.645 848.779 429.36 836.865C426.279 808.308 399.559 782.891 369.898 786.282L369 786.396C346.953 789.02 338.9 797.349 326.09 813.058C310.708 831.923 286.462 841.581 262.461 834.844C233.983 826.851 191.005 783.995 188.329 753.955L188.25 753.008C183.431 702.488 221.132 700.519 233.498 669.25C245.282 639.45 224.973 602.285 193.665 595.988C175.482 592.331 156.841 598.387 138.828 591.069C104.781 577.237 98.1161 548.627 98.004 516.314C97.9468 499.82 97.0786 483.149 103.747 467.636C113.137 445.794 130.307 431.836 154.197 429.071C169.635 427.285 185.95 431.445 200.763 425.259C234.014 411.374 248.999 370.568 225.776 340.425C213.228 324.139 197.267 320.228 190.796 296.427L190.179 294.399C187.981 288.63 188.331 282.311 188.37 276.236C188.572 244.19 221.953 209.738 247.034 194.622C270.904 180.235 302.203 183.891 321.227 204.969C328.65 213.193 334.516 222.873 344.117 228.854C379.774 251.064 428.26 224.462 429.555 182.491L429.641 158.844C430.06 126.178 451.178 105.766 482.5 98.496C489.533 96.8636 497.198 97.3867 504.382 97.3765C525.874 97.3039 550.094 95.4379 568.278 109.134L568.924 109.63C599.245 132.565 590.839 154.309 594.057 186C598.757 232.277 657.89 253.808 689.793 220.297C698.164 211.504 704.469 201.183 715.115 194.716C746.385 175.719 772.391 188.614 795.995 210.099C810.636 223.425 826.313 239.129 832.695 258.314C840.055 280.441 833.682 306.642 817.123 322.949C804.366 335.512 790.351 342.832 787.899 363.322L787.823 364C787.069 369.739 786.507 379.578 788.348 385.076L789.561 388.838C794.663 408.344 813.3 425.002 832.933 428.219C840.455 429.451 848.897 428.83 856.538 428.83C885.622 428.83 908.458 438.174 920.19 467.752C921.3 470.552 921.739 473.41 922.688 476.201L923.784 480.283C925.635 486.848 927.092 533.923 924.55 541.337L921.05 554C914.861 573.47 896.557 589.988 876.5 593.659C858.06 597.033 838.442 591.64 820.75 598.991C788.37 612.446 774.946 660.353 799.554 684.88C810.655 695.945 824.227 704.127 829.93 719.6C843.766 757.144 832.66 777.455 804.731 805.846C795.293 815.441 786.14 824.125 774.007 830.285C749.835 842.556 718.858 837.027 700.546 816.944C696.555 812.567 693.304 807.564 689.33 803.164C657.629 768.069 599.241 791.509 594.101 836.618C592.765 848.342 594.968 860.453 593.767 872.276C590.739 902.094 565.104 923.41 536.074 926.282C530.445 926.839 524.595 926.575 518.937 926.578ZM506.809 125.687C496.032 125.766 485.159 124.664 475.279 129.773L474.493 130.173C453.183 141.24 457.089 162.3 457.049 182.23C456.897 257.972 357.28 291.821 312.714 238.305C307.554 232.108 303.635 224.732 296.75 220.197L295.962 219.667C274.008 205.195 258.977 218.474 244.25 232.854C236.612 240.312 227.91 247.939 222.11 256.935L219.168 262.278C214.691 271.082 215.23 278.625 217.336 287.812C220.31 300.792 230.787 306.251 239.6 314.775C286.929 360.551 262.158 443.705 195.754 455.203C167.834 460.038 136.92 446.872 126.94 484.75L126.682 485.66C123.795 496.077 124.669 533.304 128.004 543C134.219 561.066 146.007 567.007 163.3 567.105L181.85 567.205C258.302 568.498 291.705 661.486 236.75 711.799C221.296 725.947 207.116 738.382 219.608 762.25L220.039 763.092C226.445 775.423 255.307 803.813 267.741 807.844C291.579 815.573 301.932 796.74 314.978 783.25C362.689 733.913 450.05 763.35 456.18 832.293C458.315 856.306 450.702 884.433 479.312 895.846L481.73 896.798C486.721 898.855 493.306 898.425 498.666 898.449L518.625 898.458C545.02 897.991 566.458 893.177 566.506 861.988L566.507 843.191C566.52 769.201 656.592 727.928 709.978 784.781C719.617 795.046 724.95 806.759 740.5 808.516C761.74 810.917 773.581 797.163 787.067 783.511C804.188 766.181 819.23 746.16 799.101 722.043C795.348 717.546 790.288 714.42 785.929 710.575C730.641 661.797 765.768 567.705 845.364 567.075C889.901 566.723 898.042 558.875 897.994 513.574C897.91 433.745 863.165 467.086 818.798 452.94C763.367 435.267 739.027 364.734 778.999 320.251C793.584 304.019 814.777 294.308 806.648 267.453L806.402 266.624C802.634 254.14 773.916 224.315 762.126 218.122C748.288 210.853 730.138 214.367 720.203 226.437C717.979 229.139 716.18 232.164 713.983 234.891C665.734 294.79 566.45 257.889 566.481 179.611C566.493 149.528 565.677 126.148 528.866 125.722L506.809 125.687Z"/>
	<path transform="scale(0.5 0.5)" d="M515.482 655.54C451.886 656.2 394.292 617.166 375.147 555.59C346.831 464.513 414.07 369.133 508.897 367.862C515.388 367.894 522.044 367.749 528.508 368.354C577.44 372.936 622.746 406.965 642.254 451.747L645.997 460.75C655.624 484.265 657.152 513.242 652.846 537.978C641.428 603.581 582.45 654.705 515.482 655.54ZM505.337 395.669C450.384 399.318 410.611 436.486 398.25 488.803C394.071 506.492 394.529 527.203 400.831 544.212L403.058 551C421.628 599.106 466.783 631.208 518.777 627.087C592.09 622.167 641.677 554.989 624.26 483.414C611.073 429.224 561.132 392.146 505.337 395.669Z"/>
</svg>
